<svg xmlns="http://www.w3.org/2000/svg" xmlns:xlink="http://www.w3.org/1999/xlink" width="800" zoomAndPan="magnify" viewBox="0 0 600 599.999999" height="800" preserveAspectRatio="xMidYMid meet" version="1.0"><defs><clipPath id="36d1ef63a7"><path d="M 1 191.488281 L 599 191.488281 L 599 352 L 1 352 Z M 1 191.488281 " clip-rule="nonzero"/></clipPath><clipPath id="f8e722a6fe"><path d="M 31 392 L 567 392 L 567 435.238281 L 31 435.238281 Z M 31 392 " clip-rule="nonzero"/></clipPath></defs><g clip-path="url(#36d1ef63a7)"><path fill="#4b1a2f" d="M 156.839844 329.320312 C 148.363281 335.351562 142.988281 339.015625 140.714844 340.316406 C 128.566406 347.550781 117.46875 351.167969 107.421875 351.167969 C 101.8125 351.167969 96.324219 349.886719 90.949219 347.316406 C 85.574219 344.75 81.546875 341.421875 78.859375 337.335938 C 76.171875 333.253906 74.828125 328.640625 74.828125 323.507812 C 74.828125 316.269531 77.28125 307.046875 82.1875 295.839844 C 89.199219 279.5 92.9375 270.746094 93.402344 269.578125 C 93.167969 268.644531 93.050781 267.59375 93.050781 266.425781 C 89.78125 267.828125 87.5625 268.878906 86.394531 269.578125 C 79.851562 273.78125 73.425781 278.566406 67.117188 283.9375 C 62.210938 288.371094 56.488281 293.976562 49.945312 300.746094 C 48.542969 309.148438 47.84375 317.4375 47.84375 325.605469 C 47.84375 331.910156 48.191406 338.214844 48.894531 344.515625 L 6.488281 351.167969 C 3.214844 338.097656 1.582031 325.605469 1.582031 313.699219 C 1.582031 306.464844 2.285156 299.109375 3.683594 291.640625 C 5.085938 284.171875 7.65625 275.765625 11.394531 266.425781 C 13.964844 259.890625 17.585938 251.71875 22.257812 241.914062 L 70.972656 233.859375 C 67.9375 241.332031 65.714844 246.933594 64.3125 250.667969 C 61.746094 256.972656 59.640625 262.691406 58.003906 267.828125 C 69.6875 257.089844 81.371094 248.800781 93.050781 242.964844 C 102.398438 238.296875 110.808594 235.960938 118.285156 235.960938 C 122.492188 235.960938 126.8125 236.777344 131.253906 238.414062 C 135.691406 240.046875 138.90625 242.617188 140.890625 246.117188 C 142.875 249.621094 143.867188 253.820312 143.867188 258.722656 C 143.867188 265.726562 141.882812 274.363281 137.910156 284.636719 C 133.238281 296.308594 128.683594 307.980469 124.246094 319.65625 C 124.246094 321.289062 124.828125 322.28125 125.996094 322.628906 C 127.164062 322.980469 128.332031 323.15625 129.5 323.15625 C 134.1875 323.15625 141.164062 320.707031 150.421875 315.8125 C 149.558594 312.445312 149.125 308.9375 149.125 305.296875 C 149.125 299.695312 149.945312 294.324219 151.582031 289.1875 C 153.214844 284.054688 155.667969 278.683594 158.941406 273.082031 C 164.78125 263.507812 172.957031 255.339844 183.472656 248.566406 C 193.988281 241.796875 205.082031 237.480469 216.765625 235.613281 C 220.972656 235.144531 224.242188 234.910156 226.578125 234.910156 C 234.289062 234.910156 241.179688 236.195312 247.253906 238.761719 C 253.332031 241.332031 258.355469 245.535156 262.324219 251.371094 C 264.664062 255.105469 265.832031 258.839844 265.832031 262.574219 C 265.832031 268.410156 262.910156 274.128906 257.070312 279.734375 C 252.863281 283.703125 247.199219 287.4375 240.074219 290.941406 C 232.945312 294.441406 225.878906 297.359375 218.867188 299.695312 C 213.726562 301.328125 206.488281 303.3125 197.140625 305.648438 C 200.175781 311.949219 204.5 317.027344 210.105469 320.878906 C 215.714844 324.730469 221.671875 326.660156 227.980469 326.660156 C 237.558594 326.660156 247.140625 324.207031 256.71875 319.304688 C 257.164062 319.078125 264.480469 314.457031 278.667969 305.441406 C 278.75 304.324219 278.847656 303.164062 278.972656 301.96875 C 279.324219 298.585938 280.023438 294.441406 281.078125 289.539062 C 281.492188 287.605469 281.878906 285.835938 282.238281 284.230469 L 332.847656 281.210938 C 331.636719 285.433594 330.382812 289.785156 329.089844 294.265625 C 327.570312 299.519531 326.8125 303.894531 326.8125 307.398438 C 326.8125 313 327.921875 316.910156 330.140625 319.128906 C 332.359375 321.347656 335.574219 322.457031 339.777344 322.457031 C 345.851562 322.457031 353.796875 319.886719 363.609375 314.753906 C 368.28125 311.929688 372.042969 309.660156 374.898438 307.949219 C 374.980469 306.070312 375.132812 304.074219 375.347656 301.96875 C 375.699219 298.585938 376.402344 294.441406 377.453125 289.539062 C 377.867188 287.613281 378.253906 285.847656 378.609375 284.246094 L 429.21875 281.226562 C 428.011719 285.445312 426.761719 289.792969 425.464844 294.265625 C 423.949219 299.519531 423.1875 303.894531 423.1875 307.398438 C 423.1875 313 424.296875 316.910156 426.519531 319.128906 C 428.738281 321.347656 431.949219 322.457031 436.15625 322.457031 C 442.230469 322.457031 450.175781 319.886719 459.988281 314.753906 L 467.28125 310.347656 C 467.089844 308.695312 466.996094 307.011719 466.996094 305.296875 C 466.996094 299.695312 467.8125 294.324219 469.449219 289.1875 C 471.082031 284.054688 473.539062 278.683594 476.808594 273.082031 C 482.648438 263.507812 490.828125 255.339844 501.34375 248.566406 C 511.855469 241.796875 522.953125 237.480469 534.636719 235.613281 C 538.839844 235.144531 542.113281 234.910156 544.449219 234.910156 C 552.160156 234.910156 559.050781 236.195312 565.125 238.761719 C 571.199219 241.332031 576.222656 245.535156 580.195312 251.371094 C 582.53125 255.105469 583.699219 258.839844 583.699219 262.574219 C 583.699219 268.410156 580.777344 274.128906 574.9375 279.734375 C 570.734375 283.703125 565.066406 287.4375 557.941406 290.941406 C 550.8125 294.441406 543.746094 297.359375 536.738281 299.695312 C 531.597656 301.328125 524.355469 303.3125 515.007812 305.648438 C 518.046875 311.949219 522.367188 317.027344 527.976562 320.878906 C 533.582031 324.730469 539.542969 326.660156 545.847656 326.660156 C 555.429688 326.660156 565.007812 324.207031 574.589844 319.304688 C 575.054688 319.070312 583 314.050781 598.417969 304.246094 L 598.417969 320.003906 C 597.019531 320.9375 591.410156 324.90625 581.597656 331.910156 C 574.355469 337.046875 568.394531 340.664062 563.722656 342.765625 C 552.039062 347.902344 539.191406 350.46875 525.171875 350.46875 C 515.824219 350.46875 507.53125 349.359375 500.289062 347.144531 C 493.046875 344.925781 486.386719 341.015625 480.3125 335.410156 C 476.558594 332.054688 473.597656 328.28125 471.429688 324.089844 C 461.128906 331.53125 453.226562 336.820312 447.71875 339.964844 C 435.335938 346.96875 424.121094 350.46875 414.078125 350.46875 C 408.4375 350.46875 403.886719 350.105469 398.65625 347.667969 C 389.777344 343.933594 383.585938 339.089844 380.082031 333.136719 C 378.34375 330.183594 377.035156 326.902344 376.160156 323.289062 C 365.316406 331.152344 357.042969 336.710938 351.34375 339.964844 C 338.960938 346.96875 327.746094 350.46875 317.699219 350.46875 C 312.058594 350.46875 307.507812 350.105469 302.277344 347.667969 C 293.398438 343.933594 287.210938 339.089844 283.703125 333.136719 C 281.585938 329.542969 280.109375 325.457031 279.273438 320.882812 C 276.832031 322.578125 271.652344 326.253906 263.726562 331.910156 C 256.484375 337.046875 250.527344 340.664062 245.851562 342.765625 C 234.171875 347.902344 221.320312 350.46875 207.304688 350.46875 C 197.957031 350.46875 189.664062 349.359375 182.421875 347.144531 C 175.175781 344.925781 168.519531 341.015625 162.445312 335.410156 C 160.324219 333.515625 158.453125 331.484375 156.839844 329.320312 Z M 227.28125 265.375 C 227.511719 264.441406 227.628906 263.042969 227.628906 261.175781 C 227.628906 255.105469 225.058594 252.070312 219.921875 252.070312 C 219.21875 252.070312 217.933594 252.304688 216.0625 252.769531 C 209.054688 254.40625 203.566406 258.839844 199.59375 266.078125 C 195.621094 273.3125 193.636719 280.902344 193.636719 288.839844 C 203.449219 286.269531 210.574219 283.703125 215.015625 281.132812 C 222.257812 277.167969 226.34375 271.914062 227.28125 265.375 Z M 275.644531 266.425781 L 282.652344 238.761719 L 297.019531 238.0625 L 310.691406 200.59375 L 362.558594 191.488281 L 347.839844 235.613281 L 371.320312 234.5625 L 365.011719 260.824219 C 335.230469 262.832031 305.441406 264.675781 275.644531 266.425781 Z M 372.019531 266.425781 L 379.03125 238.761719 L 393.398438 238.0625 L 407.066406 200.59375 L 458.933594 191.488281 L 444.214844 235.613281 L 467.699219 234.5625 L 461.390625 260.824219 C 431.511719 262.839844 401.507812 264.695312 372.019531 266.425781 Z M 545.148438 265.375 C 545.382812 264.441406 545.5 263.042969 545.5 261.175781 C 545.5 255.105469 542.929688 252.070312 537.789062 252.070312 C 537.089844 252.070312 535.804688 252.304688 533.933594 252.769531 C 526.925781 254.40625 521.433594 258.839844 517.460938 266.078125 C 513.492188 273.3125 511.503906 280.902344 511.503906 288.839844 C 521.316406 286.269531 528.441406 283.703125 532.882812 281.132812 C 540.125 277.167969 544.214844 271.914062 545.148438 265.375 Z M 545.148438 265.375 " fill-opacity="1" fill-rule="nonzero"/></g><g clip-path="url(#f8e722a6fe)"><path fill="#4b1a2f" d="M 31.863281 434.5625 L 37.265625 434.5625 L 37.265625 415.859375 L 52.855469 415.859375 L 52.855469 411.441406 L 37.265625 411.441406 L 37.265625 397.703125 L 54.144531 397.703125 L 54.144531 393.226562 L 31.863281 393.226562 Z M 86.539062 434.5625 L 91.878906 434.5625 L 91.878906 416.65625 L 96.914062 416.65625 C 98.519531 416.707031 99.871094 417.003906 100.964844 417.554688 C 102.050781 418.097656 102.9375 418.957031 103.632812 420.109375 C 104.320312 421.277344 104.863281 422.800781 105.261719 424.691406 C 105.8125 427.277344 106.324219 429.410156 106.773438 431.097656 C 107.226562 432.785156 107.625 433.941406 107.960938 434.5625 L 113.484375 434.5625 C 113.066406 433.757812 112.597656 432.386719 112.074219 430.453125 C 111.5625 428.523438 110.96875 426.109375 110.292969 423.21875 C 109.8125 421.0625 109.078125 419.273438 108.09375 417.851562 C 107.113281 416.429688 105.832031 415.4375 104.277344 414.875 L 104.277344 414.691406 C 105.730469 414.203125 107.03125 413.476562 108.195312 412.515625 C 109.351562 411.566406 110.285156 410.390625 110.957031 409 C 111.644531 407.597656 111.992188 406.003906 112.011719 404.207031 C 112.003906 402.570312 111.714844 401.078125 111.144531 399.71875 C 110.582031 398.371094 109.78125 397.222656 108.757812 396.292969 C 107.523438 395.160156 105.925781 394.3125 103.972656 393.757812 C 102.027344 393.195312 99.632812 392.921875 96.792969 392.921875 C 95.574219 392.921875 94.355469 392.960938 93.128906 393.035156 C 91.902344 393.105469 90.714844 393.207031 89.589844 393.339844 C 88.464844 393.464844 87.449219 393.617188 86.539062 393.777344 Z M 91.878906 397.519531 C 92.339844 397.398438 93.015625 397.296875 93.894531 397.214844 C 94.785156 397.132812 95.871094 397.089844 97.160156 397.089844 C 99.050781 397.082031 100.707031 397.355469 102.140625 397.886719 C 103.5625 398.429688 104.667969 399.269531 105.464844 400.394531 C 106.253906 401.527344 106.664062 402.980469 106.671875 404.757812 C 106.664062 406.34375 106.285156 407.722656 105.527344 408.886719 C 104.769531 410.0625 103.695312 410.972656 102.304688 411.625 C 100.902344 412.269531 99.257812 412.597656 97.34375 412.609375 L 91.878906 412.609375 Z M 165.953125 421.5625 L 170.375 434.5625 L 176.082031 434.5625 L 161.964844 393.226562 L 155.582031 393.226562 L 141.464844 434.5625 L 146.988281 434.5625 L 151.285156 421.5625 Z M 152.390625 417.390625 L 156.441406 405.433594 C 156.871094 404.164062 157.25 402.90625 157.574219 401.640625 C 157.914062 400.382812 158.230469 399.144531 158.527344 397.949219 L 158.648438 397.949219 C 158.945312 399.136719 159.273438 400.363281 159.609375 401.609375 C 159.949219 402.855469 160.347656 404.144531 160.796875 405.492188 L 164.910156 417.390625 Z M 242.480469 434.5625 L 247.761719 434.5625 L 245.183594 393.226562 L 238.371094 393.226562 L 231.003906 413.222656 C 230.082031 415.816406 229.253906 418.269531 228.519531 420.570312 C 227.78125 422.871094 227.136719 425.066406 226.585938 427.144531 L 226.460938 427.144531 C 225.910156 425.007812 225.296875 422.777344 224.609375 420.480469 C 223.914062 418.179688 223.148438 415.757812 222.289062 413.222656 L 215.230469 393.226562 L 208.417969 393.226562 L 205.53125 434.5625 L 210.625 434.5625 L 211.730469 416.839844 C 211.851562 414.734375 211.964844 412.617188 212.078125 410.460938 C 212.179688 408.316406 212.273438 406.230469 212.355469 404.195312 C 212.425781 402.171875 212.488281 400.289062 212.527344 398.5625 L 212.652344 398.5625 C 213.234375 401.007812 213.917969 403.5625 214.71875 406.230469 C 215.503906 408.886719 216.394531 411.6875 217.378906 414.632812 L 224.128906 434.320312 L 228.179688 434.320312 L 235.484375 414.265625 C 236.527344 411.414062 237.46875 408.683594 238.328125 406.066406 C 239.175781 403.449219 239.976562 400.957031 240.703125 398.5625 L 240.824219 398.5625 C 240.824219 399.839844 240.84375 401.222656 240.886719 402.683594 C 240.925781 404.15625 240.976562 405.667969 241.050781 407.230469 C 241.113281 408.796875 241.183594 410.347656 241.265625 411.902344 C 241.347656 413.457031 241.417969 414.957031 241.5 416.410156 Z M 302.070312 410.769531 L 286.050781 410.769531 L 286.050781 397.703125 L 303.050781 397.703125 L 303.050781 393.226562 L 280.648438 393.226562 L 280.648438 434.5625 L 303.972656 434.5625 L 303.972656 430.085938 L 286.050781 430.085938 L 286.050781 415.183594 L 302.070312 415.183594 Z M 348.523438 434.5625 L 354.414062 413.039062 C 354.925781 411.269531 355.375 409.613281 355.777344 408.078125 C 356.175781 406.546875 356.523438 405.074219 356.820312 403.683594 C 357.125 402.285156 357.382812 400.902344 357.605469 399.542969 L 357.730469 399.542969 C 357.914062 400.925781 358.128906 402.316406 358.394531 403.726562 C 358.648438 405.125 358.945312 406.597656 359.285156 408.121094 C 359.621094 409.644531 360 411.289062 360.429688 413.039062 L 365.648438 434.5625 L 371.234375 434.5625 L 382.957031 393.226562 L 377.492188 393.226562 L 372.03125 414.078125 C 371.386719 416.644531 370.773438 419.097656 370.210938 421.460938 C 369.648438 423.808594 369.144531 426.109375 368.714844 428.371094 L 368.59375 428.371094 C 368.277344 426.183594 367.867188 423.894531 367.355469 421.488281 C 366.855469 419.097656 366.300781 416.664062 365.710938 414.203125 L 360.675781 393.226562 L 355.089844 393.226562 L 349.566406 414.078125 C 348.851562 416.757812 348.195312 419.304688 347.601562 421.714844 C 347.007812 424.128906 346.539062 426.367188 346.191406 428.429688 L 346.066406 428.429688 C 345.820312 427.089844 345.535156 425.652344 345.21875 424.097656 C 344.902344 422.542969 344.554688 420.929688 344.175781 419.253906 C 343.804688 417.566406 343.40625 415.867188 343 414.140625 L 338.089844 393.226562 L 332.441406 393.226562 L 342.9375 434.5625 Z M 429.53125 392.492188 C 426.761719 392.503906 424.203125 393.011719 421.878906 394.035156 C 419.546875 395.058594 417.53125 396.519531 415.8125 398.421875 C 414.09375 400.332031 412.765625 402.609375 411.824219 405.269531 C 410.871094 407.9375 410.390625 410.910156 410.382812 414.203125 C 410.390625 417.339844 410.84375 420.191406 411.742188 422.769531 C 412.644531 425.332031 413.910156 427.550781 415.558594 429.410156 C 417.203125 431.273438 419.167969 432.703125 421.441406 433.714844 C 423.710938 434.71875 426.21875 435.226562 428.980469 435.238281 C 431.097656 435.238281 433.125 434.929688 435.035156 434.328125 C 436.949219 433.734375 438.707031 432.835938 440.304688 431.652344 C 441.898438 430.464844 443.292969 429.003906 444.46875 427.246094 C 445.644531 425.496094 446.566406 423.472656 447.210938 421.171875 C 447.855469 418.875 448.179688 416.296875 448.191406 413.464844 C 448.179688 410.367188 447.742188 407.546875 446.871094 404.992188 C 446.003906 402.425781 444.753906 400.21875 443.117188 398.359375 C 441.492188 396.488281 439.527344 395.046875 437.234375 394.035156 C 434.953125 393.023438 432.375 392.503906 429.53125 392.492188 Z M 429.347656 396.847656 C 431.128906 396.855469 432.722656 397.171875 434.136719 397.808594 C 435.558594 398.429688 436.785156 399.300781 437.839844 400.394531 C 438.894531 401.496094 439.773438 402.765625 440.46875 404.195312 C 441.164062 405.625 441.683594 407.160156 442.03125 408.773438 C 442.371094 410.398438 442.542969 412.046875 442.542969 413.710938 C 442.542969 416.074219 442.25 418.292969 441.664062 420.355469 C 441.082031 422.421875 440.222656 424.238281 439.097656 425.8125 C 437.960938 427.386719 436.582031 428.625 434.933594 429.523438 C 433.285156 430.414062 431.40625 430.863281 429.285156 430.882812 C 427.589844 430.875 426.042969 430.578125 424.652344 429.996094 C 423.261719 429.402344 422.035156 428.585938 420.960938 427.53125 C 419.886719 426.480469 418.984375 425.242188 418.257812 423.839844 C 417.523438 422.429688 416.96875 420.898438 416.589844 419.242188 C 416.222656 417.585938 416.027344 415.867188 416.027344 414.078125 C 416.027344 412.269531 416.203125 410.511719 416.5625 408.824219 C 416.90625 407.140625 417.441406 405.566406 418.15625 404.113281 C 418.863281 402.671875 419.753906 401.40625 420.816406 400.3125 C 421.878906 399.226562 423.128906 398.378906 424.550781 397.777344 C 425.972656 397.164062 427.566406 396.855469 429.347656 396.847656 Z M 479.851562 434.5625 L 485.191406 434.5625 L 485.191406 416.65625 L 490.226562 416.65625 C 491.832031 416.707031 493.179688 417.003906 494.277344 417.554688 C 495.359375 418.097656 496.25 418.957031 496.945312 420.109375 C 497.632812 421.277344 498.175781 422.800781 498.574219 424.691406 C 499.125 427.277344 499.636719 429.410156 500.085938 431.097656 C 500.539062 432.785156 500.9375 433.941406 501.273438 434.5625 L 506.796875 434.5625 C 506.378906 433.757812 505.90625 432.386719 505.386719 430.453125 C 504.875 428.523438 504.28125 426.109375 503.605469 423.21875 C 503.125 421.0625 502.390625 419.273438 501.40625 417.851562 C 500.425781 416.429688 499.144531 415.4375 497.589844 414.875 L 497.589844 414.691406 C 499.042969 414.203125 500.34375 413.476562 501.507812 412.515625 C 502.664062 411.566406 503.597656 410.390625 504.269531 409 C 504.957031 407.597656 505.304688 406.003906 505.324219 404.207031 C 505.316406 402.570312 505.027344 401.078125 504.453125 399.71875 C 503.890625 398.371094 503.09375 397.222656 502.070312 396.292969 C 500.835938 395.160156 499.238281 394.3125 497.285156 393.757812 C 495.339844 393.195312 492.945312 392.921875 490.101562 392.921875 C 488.886719 392.921875 487.667969 392.960938 486.441406 393.035156 C 485.210938 393.105469 484.027344 393.207031 482.902344 393.339844 C 481.777344 393.464844 480.761719 393.617188 479.851562 393.777344 Z M 485.191406 397.519531 C 485.652344 397.398438 486.328125 397.296875 487.207031 397.214844 C 488.097656 397.132812 489.183594 397.089844 490.472656 397.089844 C 492.363281 397.082031 494.019531 397.355469 495.453125 397.886719 C 496.875 398.429688 497.980469 399.269531 498.777344 400.394531 C 499.566406 401.527344 499.972656 402.980469 499.984375 404.757812 C 499.972656 406.34375 499.597656 407.722656 498.839844 408.886719 C 498.082031 410.0625 497.007812 410.972656 495.617188 411.625 C 494.214844 412.269531 492.566406 412.597656 490.65625 412.609375 L 485.191406 412.609375 Z M 537.597656 434.5625 L 542.9375 434.5625 L 542.9375 418.800781 L 546.929688 414.265625 L 560.492188 434.5625 L 566.816406 434.5625 L 550.671875 410.769531 L 565.648438 393.226562 L 559.019531 393.226562 L 546.375 408.742188 C 545.855469 409.417969 545.324219 410.125 544.769531 410.859375 C 544.226562 411.59375 543.675781 412.363281 543.121094 413.160156 L 542.9375 413.160156 L 542.9375 393.226562 L 537.597656 393.226562 Z M 537.597656 434.5625 " fill-opacity="1" fill-rule="nonzero"/></g></svg>